<mxfile host="app.diagrams.net" modified="2023-04-26T09:55:06.459Z" agent="Mozilla/5.0 (Macintosh; Intel Mac OS X 10_15_7) AppleWebKit/537.36 (KHTML, like Gecko) Chrome/112.0.0.0 Safari/537.36" etag="efCegeJiwHL1fSItsb9v" version="21.2.1" type="github">
  <diagram name="第 1 页" id="GR3lJULI5mWMxPLvMLa0">
    <mxGraphModel dx="823" dy="544" grid="1" gridSize="10" guides="1" tooltips="1" connect="1" arrows="1" fold="1" page="1" pageScale="1" pageWidth="827" pageHeight="1169" math="0" shadow="0">
      <root>
        <mxCell id="0" />
        <mxCell id="1" parent="0" />
        <mxCell id="OKoF3Qmlz-CwvZrR3h_e-3" value="" style="edgeStyle=orthogonalEdgeStyle;rounded=0;orthogonalLoop=1;jettySize=auto;html=1;" edge="1" parent="1" source="OKoF3Qmlz-CwvZrR3h_e-1" target="OKoF3Qmlz-CwvZrR3h_e-2">
          <mxGeometry relative="1" as="geometry" />
        </mxCell>
        <mxCell id="OKoF3Qmlz-CwvZrR3h_e-6" value="遍历cks" style="edgeLabel;html=1;align=center;verticalAlign=middle;resizable=0;points=[];" vertex="1" connectable="0" parent="OKoF3Qmlz-CwvZrR3h_e-3">
          <mxGeometry x="-0.4658" y="1" relative="1" as="geometry">
            <mxPoint as="offset" />
          </mxGeometry>
        </mxCell>
        <mxCell id="OKoF3Qmlz-CwvZrR3h_e-1" value="cks" style="rounded=1;whiteSpace=wrap;html=1;" vertex="1" parent="1">
          <mxGeometry x="280" y="80" width="120" height="60" as="geometry" />
        </mxCell>
        <mxCell id="OKoF3Qmlz-CwvZrR3h_e-5" value="" style="edgeStyle=orthogonalEdgeStyle;rounded=0;orthogonalLoop=1;jettySize=auto;html=1;" edge="1" parent="1" source="OKoF3Qmlz-CwvZrR3h_e-2" target="OKoF3Qmlz-CwvZrR3h_e-4">
          <mxGeometry relative="1" as="geometry" />
        </mxCell>
        <mxCell id="OKoF3Qmlz-CwvZrR3h_e-7" value="遍历ck" style="edgeLabel;html=1;align=center;verticalAlign=middle;resizable=0;points=[];" vertex="1" connectable="0" parent="OKoF3Qmlz-CwvZrR3h_e-5">
          <mxGeometry x="-0.1908" relative="1" as="geometry">
            <mxPoint as="offset" />
          </mxGeometry>
        </mxCell>
        <mxCell id="OKoF3Qmlz-CwvZrR3h_e-2" value="ck" style="rounded=1;whiteSpace=wrap;html=1;" vertex="1" parent="1">
          <mxGeometry x="280" y="220" width="120" height="60" as="geometry" />
        </mxCell>
        <mxCell id="OKoF3Qmlz-CwvZrR3h_e-4" value="" style="rounded=1;whiteSpace=wrap;html=1;" vertex="1" parent="1">
          <mxGeometry x="280" y="360" width="120" height="60" as="geometry" />
        </mxCell>
      </root>
    </mxGraphModel>
  </diagram>
</mxfile>
